{
  "asset": { "version": "2.0", "generator": "Mori.SkyScope fixture: the cube of cube.glb with its buffer in the external file box-external.bin, lifted by 0.5 and painted blue; read by spec/fixtures/mesh-formats.json" },
  "scene": 0,
  "scenes": [{ "nodes": [0] }],
  "nodes": [{ "mesh": 0, "translation": [0, 0, 0.5] }],
  "meshes": [{ "primitives": [{ "attributes": { "POSITION": 0 }, "indices": 1, "material": 0 }] }],
  "materials": [{ "name": "blue", "pbrMetallicRoughness": { "baseColorFactor": [0.2, 0.6, 0.9, 1.0] } }],
  "accessors": [
    { "bufferView": 0, "componentType": 5126, "count": 8, "type": "VEC3", "min": [-1, -1, -1], "max": [1, 1, 1] },
    { "bufferView": 1, "componentType": 5123, "count": 36, "type": "SCALAR" }
  ],
  "bufferViews": [
    { "buffer": 0, "byteOffset": 0, "byteLength": 96 },
    { "buffer": 0, "byteOffset": 96, "byteLength": 72 }
  ],
  "buffers": [{ "byteLength": 168, "uri": "box-external.bin" }]
}
