{
  "asset": { "version": "2.0", "generator": "Mori.SkyScope fixture: one triangle with its buffer as a data URI and a red base colour; read by spec/fixtures/mesh-formats.json" },
  "scene": 0,
  "scenes": [{ "nodes": [0] }],
  "nodes": [{ "mesh": 0 }],
  "meshes": [{ "primitives": [{ "attributes": { "POSITION": 0 }, "material": 0 }] }],
  "materials": [{ "name": "red", "pbrMetallicRoughness": { "baseColorFactor": [0.8, 0.2, 0.1, 1.0] } }],
  "accessors": [{ "bufferView": 0, "componentType": 5126, "count": 3, "type": "VEC3", "min": [0, 0, 0], "max": [1, 1, 0] }],
  "bufferViews": [{ "buffer": 0, "byteOffset": 0, "byteLength": 36 }],
  "buffers": [{ "byteLength": 36, "uri": "data:application/octet-stream;base64," }]
}
